<svg xmlns="http://www.w3.org/2000/svg" xmlns:xlink="http://www.w3.org/1999/xlink" width="244.5040649397926" height="180.25203246989633"><rect id="backgroundrect" width="100%" height="100%" x="0" y="0" fill="none" stroke="none" class="selected" style=""/><defs><linearGradient x1="61.181%" y1="36.858%" x2="40.788%" y2="55.524%" id="a"><stop stop-color="#78B46A" offset="0%"/><stop stop-color="#7F3500" offset="3%"/><stop stop-color="#FFF" offset="100%"/></linearGradient><linearGradient x1="82.186%" y1="28.582%" x2="29.852%" y2="62.428%" id="b"><stop stop-color="#78B46A" offset="0%"/><stop stop-color="#7F3500" offset="3%"/><stop stop-color="#FFF" offset="100%"/></linearGradient><linearGradient x1="80.66%" y1="21.945%" x2="21.557%" y2="66.572%" id="c"><stop stop-color="#78B46A" offset="0%"/><stop stop-color="#7F3500" offset="3%"/><stop stop-color="#FFF" offset="100%"/></linearGradient><linearGradient x1="81.016%" y1="60.558%" x2="67.462%" y2="55.262%" id="d"><stop stop-color="#FFF" stop-opacity="0" offset="0%"/><stop stop-color="#DC841E" offset="99%"/></linearGradient><linearGradient x1="82.183%" y1="27.602%" x2="29.857%" y2="62.288%" id="e"><stop stop-color="#78B46A" offset="0%"/><stop stop-color="#7F3500" offset="3%"/><stop stop-color="#FFF" offset="100%"/></linearGradient><filter x="-195.8%" y="-152.6%" width="491.7%" height="527.4%" filterUnits="objectBoundingBox" id="f"><feOffset dy="25" in="SourceAlpha" result="shadowOffsetOuter1"/><feGaussianBlur stdDeviation="25" in="shadowOffsetOuter1" result="shadowBlurOuter1"/><feColorMatrix values="0 0 0 0 0.209139076 0 0 0 0 0.0691446444 0 0 0 0 0.478091033 0 0 0 0.497159091 0" in="shadowBlurOuter1"/></filter><path id="g" d="M0 13.878v26.935L20.984 52.83l23.694-14.013V11.883"/></defs><g class="currentLayer" style=""><title>Layer 1</title><g fill="none" fill-rule="evenodd" id="svg_1" class=""><g fill-rule="nonzero" id="svg_2"><path d="M117.16473249816895,177.6888837350489 L6.846732498168947,112.5128837350489 c-3.512,-1.974 -6.523,-5.209 -3.1,-7.331 L114.45673249816895,41.3928837350489 c1.6600000000000001,-1.03 4.181,-1.705 5.873,-0.7200000000000006 l115.786,67.19 c3.512,2.038 4.142,7.7170000000000005 0.6430000000000009,9.774000000000001 l-105.056,59.95 a14.67,14.67 0 0 1 -14.538,0.10200000000000002 z" fill="#5B36A0" id="svg_3"/><path d="M117.16473249816895,174.6808837350489 L6.846732498168947,109.5028837350489 c-3.512,-1.975 -6.523,-5.21 -3.1,-7.332 l110.71,-63.788 c1.6600000000000001,-1.029 4.181,-1.7040000000000002 5.873,-0.7200000000000006 l115.786,67.19 c3.512,2.039 4.142,7.7170000000000005 0.6430000000000009,9.775 l-105.056,59.949 a14.67,14.67 0 0 1 -14.538,0.10300000000000002 z" fill="#6862E6" id="svg_4"/><path d="M126.26073249816895,88.6868837350489 l-21.768,12.418 s33.533,20.457 40.39,23.338 l12.537,-18.007 " fill="url(#a)" opacity=".25" style="mix-blend-mode:multiply" id="svg_5"/><path d="M118.74073249816894,148.2628837350489 l-21.774,-12.393 l-21.774,12.418 s11.34,6.92 22.18,13.274000000000001 c6.882,-4.868 13.771,-9.788 21.368,-13.3 z" fill="url(#b)" opacity=".25" style="mix-blend-mode:multiply" id="svg_6"/><path d="M71.82873249816895,71.7348837350489 L58.017732498168954,79.6128837350489 s1.17,7.222 8.028,10.103 l18.082,-11.576 " fill="url(#c)" opacity=".46" style="mix-blend-mode:multiply" id="svg_7"/><ellipse fill="#68E1FD" cx="78.58872985839844" cy="73.74787902832031" rx="8.329999923706055" ry="5.864999771118164" id="svg_8"/><ellipse fill="#974C26" cx="78.58273315429688" cy="70.28787994384766" rx="6.239999771118164" ry="2.552999973297119" id="svg_9"/><path d="M78.35773249816894,66.0308837350489 c0,-1.151 -0.03900000000000005,-2.303 -0.129,-3.454 c-0.026000000000000047,-0.3000000000000003 -0.05400000000000009,-0.5980000000000006 -0.08400000000000012,-0.8940000000000009 l-0.0640000000000001,-0.5850000000000006 c0,-0.17300000000000001 -0.09000000000000016,-0.6430000000000009 -0.09000000000000016,-0.5980000000000006 c-0.03900000000000005,-0.23600000000000004 -0.0800000000000001,-0.4700000000000003 -0.1220000000000001,-0.7000000000000006 a27.482,27.482 0 0 0 -4.451,-10.888 a15.913,15.913 0 0 0 -1.242,6.373 c0,0.6430000000000009 0.05100000000000007,1.286 0.10300000000000002,1.8900000000000001 v0.3800000000000004 a25.153,25.153 0 0 0 1.158,4.38 a21.007,21.007 0 0 0 1.344,3.009 a41.327,41.327 0 0 0 1.846,3.183 c0.515,0.81 1.004,1.53 1.5,2.219 c0.1540000000000002,-1.4340000000000002 0.22400000000000025,-2.875 0.23,-4.315 zm-3.274,-12.946 a1.035,1.035 0 0 0 0,-0.45 c0.15800000000000022,0.16300000000000026 0.3150000000000004,0.33000000000000046 0.4700000000000003,0.502 a1.428,1.428 0 0 0 -0.4770000000000003,-0.052000000000000074 h0.007000000000000014 z" fill="#999A1C" id="svg_10"/><path d="M80.49973249816894,66.9178837350489 c0.6430000000000009,-0.97 1.21,-1.9300000000000002 1.7560000000000002,-2.977 c0.14100000000000001,-0.266 0.279,-0.532 0.4120000000000003,-0.798 l0.263,-0.534 l0.251,-0.553 l0.277,-0.6430000000000009 a27.48,27.48 0 0 0 2.142,-11.575 a15.918,15.918 0 0 0 -4.503,4.694 a23.024,23.024 0 0 0 -0.933,1.6470000000000002 l-0.128,0.23700000000000004 l-0.03300000000000005,0.10300000000000002 c-0.1220000000000001,0.2900000000000003 -0.2440000000000002,0.5800000000000006 -0.3600000000000003,0.8750000000000008 a25.153,25.153 0 0 0 -1.035,3.44 a21.005,21.005 0 0 0 -0.4960000000000004,3.261 a38.863,38.863 0 0 0 -0.1670000000000003,3.672 c0,0.9580000000000006 0,1.8330000000000002 0.05800000000000007,2.6750000000000007 c0.8550000000000006,-1.138 1.717,-2.308 2.496,-3.524 zm4.245,-12.662 c0.101,-0.1130000000000001 0.17600000000000018,-0.2470000000000002 0.21900000000000022,-0.39300000000000046 c0.04700000000000005,0.22300000000000025 0.08800000000000013,0.4380000000000004 0.1220000000000001,0.6440000000000009 c-0.1,-0.1 -0.2150000000000002,-0.1850000000000002 -0.3400000000000005,-0.251 z" fill="#999A1C" id="svg_11"/><path d="M80.45473249816895,69.7858837350489 c0.6470000000000009,-0.32100000000000045 1.29,-0.668000000000001 1.9300000000000002,-1.041 l0.4820000000000003,-0.2960000000000003 l0.3150000000000004,-0.2 l0.3090000000000004,-0.21800000000000022 l0.3600000000000003,-0.264 a17.288,17.288 0 0 0 4.889,-5.55 a10.017,10.017 0 0 0 -3.9370000000000003,1.087 c-0.3540000000000003,0.1800000000000002 -0.6950000000000012,0.3800000000000004 -1.036,0.5850000000000006 l-0.14700000000000019,0.09000000000000016 l-0.052000000000000074,0.04500000000000008 l-0.4760000000000003,0.3540000000000003 c-0.5930000000000006,0.467 -1.1520000000000001,0.977 -1.6720000000000006,1.524 c-0.4810000000000003,0.4980000000000004 -0.922,1.034 -1.32,1.601 a41.869,41.869 0 0 0 -1.286,1.9300000000000002 c-0.3080000000000004,0.514 -0.5850000000000006,0.996 -0.8300000000000006,1.466 c0.8300000000000006,-0.3470000000000006 1.6600000000000001,-0.7080000000000006 2.47,-1.113 zm6.38,-5.466 a0.6430000000000009,0.6430000000000009 0 0 0 0.2450000000000002,-0.14100000000000001 a6.569,6.569 0 0 1 -0.1540000000000002,0.405 a0.9,0.9 0 0 0 -0.09000000000000016,-0.257 v-0.007000000000000014 zM78.35773249816894,66.0308837350489 c0,-1.151 -0.03900000000000005,-2.303 -0.129,-3.454 c-0.026000000000000047,-0.3000000000000003 -0.05400000000000009,-0.5980000000000006 -0.08400000000000012,-0.8940000000000009 l-0.0640000000000001,-0.5850000000000006 c0,-0.17300000000000001 -0.09000000000000016,-0.6430000000000009 -0.09000000000000016,-0.5980000000000006 c-0.03900000000000005,-0.23600000000000004 -0.0800000000000001,-0.4700000000000003 -0.1220000000000001,-0.7000000000000006 a27.482,27.482 0 0 0 -4.451,-10.888 a15.913,15.913 0 0 0 -1.242,6.373 c0,0.6430000000000009 0.05100000000000007,1.286 0.10300000000000002,1.8900000000000001 v0.3800000000000004 a25.153,25.153 0 0 0 1.158,4.38 a21.007,21.007 0 0 0 1.344,3.009 a41.327,41.327 0 0 0 1.846,3.183 c0.515,0.81 1.004,1.53 1.5,2.219 c0.1540000000000002,-1.4340000000000002 0.22400000000000025,-2.875 0.23,-4.315 zm-3.274,-12.946 a1.035,1.035 0 0 0 0,-0.45 c0.15800000000000022,0.16300000000000026 0.3150000000000004,0.33000000000000046 0.4700000000000003,0.502 a1.428,1.428 0 0 0 -0.4770000000000003,-0.052000000000000074 h0.007000000000000014 z" fill="#999A1C" id="svg_12"/><path d="M80.49973249816894,66.9178837350489 c0.6430000000000009,-0.97 1.21,-1.9300000000000002 1.7560000000000002,-2.977 c0.14100000000000001,-0.266 0.279,-0.532 0.4120000000000003,-0.798 l0.263,-0.534 l0.251,-0.553 l0.277,-0.6430000000000009 a27.48,27.48 0 0 0 2.142,-11.575 a15.918,15.918 0 0 0 -4.503,4.694 a23.024,23.024 0 0 0 -0.933,1.6470000000000002 l-0.128,0.23700000000000004 l-0.03300000000000005,0.10300000000000002 c-0.1220000000000001,0.2900000000000003 -0.2440000000000002,0.5800000000000006 -0.3600000000000003,0.8750000000000008 a25.153,25.153 0 0 0 -1.035,3.44 a21.005,21.005 0 0 0 -0.4960000000000004,3.261 a38.863,38.863 0 0 0 -0.1670000000000003,3.672 c0,0.9580000000000006 0,1.8330000000000002 0.05800000000000007,2.6750000000000007 c0.8550000000000006,-1.138 1.717,-2.308 2.496,-3.524 zm4.245,-12.662 c0.101,-0.1130000000000001 0.17600000000000018,-0.2470000000000002 0.21900000000000022,-0.39300000000000046 c0.04700000000000005,0.22300000000000025 0.08800000000000013,0.4380000000000004 0.1220000000000001,0.6440000000000009 c-0.1,-0.1 -0.2150000000000002,-0.1850000000000002 -0.3400000000000005,-0.251 z" fill="#999A1C" id="svg_13"/><path d="M80.45473249816895,69.7858837350489 c0.6470000000000009,-0.32100000000000045 1.29,-0.668000000000001 1.9300000000000002,-1.041 l0.4820000000000003,-0.2960000000000003 l0.3150000000000004,-0.2 l0.3090000000000004,-0.21800000000000022 l0.3600000000000003,-0.264 a17.288,17.288 0 0 0 4.889,-5.55 a10.017,10.017 0 0 0 -3.9370000000000003,1.087 c-0.3540000000000003,0.1800000000000002 -0.6950000000000012,0.3800000000000004 -1.036,0.5850000000000006 l-0.14700000000000019,0.09000000000000016 l-0.052000000000000074,0.04500000000000008 l-0.4760000000000003,0.3540000000000003 c-0.5930000000000006,0.467 -1.1520000000000001,0.977 -1.6720000000000006,1.524 c-0.4810000000000003,0.4980000000000004 -0.922,1.034 -1.32,1.601 a41.869,41.869 0 0 0 -1.286,1.9300000000000002 c-0.3080000000000004,0.514 -0.5850000000000006,0.996 -0.8300000000000006,1.466 c0.8300000000000006,-0.3470000000000006 1.6600000000000001,-0.7080000000000006 2.47,-1.113 zm6.38,-5.466 a0.6430000000000009,0.6430000000000009 0 0 0 0.2450000000000002,-0.14100000000000001 a6.569,6.569 0 0 1 -0.1540000000000002,0.405 a0.9,0.9 0 0 0 -0.09000000000000016,-0.257 v-0.007000000000000014 z" fill="#999A1C" id="svg_14"/><path d="M134.90573249816896,83.8378837350489 l-12.048,5.788 a2.7720000000000002,2.7720000000000002 0 0 0 -0.19300000000000025,4.894 l28.554,16.656 a2.773,2.773 0 0 0 3.731,-0.8940000000000009 l6.94,-10.791 " fill="#A1482D" id="svg_15"/><path d="M200.43473249816896,55.9208837350489 L104.36473249816896,0.5768837350489004 a4.336,4.336 0 0 0 -6.497,3.7560000000000002 v57.575 c0,1.287 0.686000000000001,2.476 1.8,3.12 l102.42,59.106 a2.323,2.323 0 0 0 3.486,-2.013 V64.7828837350489 a10.225,10.225 0 0 0 -5.14,-8.862 z" fill="#F47B56" id="svg_16"/><path d="M104.37073249816893,4.9308837350489005 l93.169,53.588 a6.533,6.533 0 0 1 3.274,5.66 v43.157 a2.36,2.36 0 0 1 -3.531,2.045 l-95.016,-54.482 a2.3280000000000003,2.3280000000000003 0 0 1 -1.17,-2.02 V6.8278837350489 a2.186,2.186 0 0 1 3.274,-1.8970000000000002 z" fill="#FFF" id="svg_17"/><ellipse fill="#AB643C" transform="rotate(-10.899999618530273 143.1347351074219,84.05988311767582) " cx="143.13473510742188" cy="84.05988311767578" rx="2.0260000228881836" ry="2.315000057220459" id="svg_18"/><path fill="url(#d)" opacity=".32" d="M129.41273249816896,63.4838837350489 l43.297,26.007 l21.389,-12.431000000000001 l-38.216,-22.238 " id="svg_19"/><path d="M182.91873249816894,58.3068837350489 l-46.81,-28.534 a1.621,1.621 0 0 0 -2.431,1.46 v16.257 a1.7040000000000002,1.7040000000000002 0 0 0 0.8170000000000006,1.467 l46.803,27.93 a1.6150000000000002,1.6150000000000002 0 0 0 2.412,-1.4100000000000001 l0.2440000000000002,-15.157 a2.276,2.276 0 0 0 -1.035,-2.013 z" fill="#E2AC00" id="svg_20"/><path d="M171.71973249816895,66.6728837350489 c1.6790000000000007,2.348 4.631,3.004 6.587,1.473 c1.955,-1.53 2.18,-4.675 0.501,-7.016 c-1.6790000000000007,-2.34 -4.631,-3.003 -6.587,-1.472 c-1.955,1.53 -2.18,4.6690000000000005 -0.501,7.016 z" fill="#FFF" id="svg_21"/><path d="M167.12673249816893,55.4068837350489 l-19.092,-11.492 a0.7270000000000006,0.7270000000000006 0 0 0 -0.7330000000000008,1.247 l19.092,11.492 a0.7270000000000006,0.7270000000000006 0 0 0 0.7330000000000008,-1.247 zM166.34173249816894,60.0758837350489 l-26.315,-15.84 a0.7270000000000006,0.7270000000000006 0 0 0 -0.7020000000000006,1.248 l26.284,15.846 a0.7270000000000006,0.7270000000000006 0 0 0 0.7330000000000008,-1.248 v-0.006000000000000014 z" fill="#F2F2F2" id="svg_22"/><path d="M173.57873249816893,61.4578837350489 l-46.784,-28.527 a1.621,1.621 0 0 0 -2.432,1.46 v16.25 c-0.007000000000000014,0.6000000000000006 0.3000000000000003,1.159 0.81,1.473 l46.804,27.93 a1.6150000000000002,1.6150000000000002 0 0 0 2.419,-1.44 l0.2440000000000002,-15.159 a2.276,2.276 0 0 0 -1.061,-1.987 z" fill="#F47B56" id="svg_23"/><path d="M162.37973249816895,69.8248837350489 c1.6790000000000007,2.347 4.631,3.003 6.587,1.473 c1.955,-1.53 2.18,-4.676 0.501,-7.017 c-1.6790000000000007,-2.34 -4.631,-3.003 -6.587,-1.472 c-1.955,1.53 -2.18,4.6690000000000005 -0.501,7.016 z" fill="#FFF" id="svg_24"/><path d="M157.78673249816896,58.557883735048904 L138.68073249816894,47.0658837350489 a0.7270000000000006,0.7270000000000006 0 0 0 -0.7330000000000008,1.248 l19.092,11.492 a0.7270000000000006,0.7270000000000006 0 0 0 0.7330000000000008,-1.248 h0.013000000000000022 zM156.99573249816893,63.2588837350489 l-26.31,-15.865 a0.7270000000000006,0.7270000000000006 0 0 0 -0.7330000000000008,1.248 l26.316,15.839 a0.7270000000000006,0.7270000000000006 0 0 0 0.7330000000000008,-1.248 l-0.006000000000000014,0.026000000000000047 z" fill="#F2F2F2" id="svg_25"/><path d="M161.83873249816895,63.3748837350489 l-46.796,-28.528 a1.621,1.621 0 0 0 -2.432,1.46 v16.251 a1.7040000000000002,1.7040000000000002 0 0 0 0.8170000000000006,1.466 l46.803,27.93 a1.6150000000000002,1.6150000000000002 0 0 0 2.419,-1.44 l0.2440000000000002,-15.159 c0.021000000000000033,-0.8 -0.3800000000000004,-1.5510000000000002 -1.055,-1.98 z" fill="#68E1FD" id="svg_26"/><path d="M161.83873249816895,63.3748837350489 l-46.796,-28.528 a1.621,1.621 0 0 0 -2.432,1.46 v16.251 a1.7040000000000002,1.7040000000000002 0 0 0 0.8170000000000006,1.466 l46.803,27.93 a1.6150000000000002,1.6150000000000002 0 0 0 2.419,-1.44 l0.2440000000000002,-15.159 c0.021000000000000033,-0.8 -0.3800000000000004,-1.5510000000000002 -1.055,-1.98 z" fill="#68E1FD" id="svg_27"/><path d="M150.63373249816894,71.7408837350489 c1.6790000000000007,2.348 4.631,3.004 6.587,1.473 c1.955,-1.53 2.18,-4.675 0.501,-7.016 c-1.6780000000000008,-2.34 -4.631,-3.003 -6.586,-1.473 c-1.956,1.53 -2.162,4.67 -0.502,7.016 z" fill="#FFF" id="svg_28"/><path d="M146.04073249816895,60.4738837350489 L126.94273249816894,48.9828837350489 a0.7270000000000006,0.7270000000000006 0 0 0 -0.7340000000000008,1.248 l19.092,11.492 a0.7270000000000006,0.7270000000000006 0 0 0 0.7340000000000008,-1.248 h0.006000000000000014 zM145.24973249816895,65.1498837350489 l-26.316,-15.84 a0.7270000000000006,0.7270000000000006 0 0 0 -0.7330000000000008,1.248 l26.315,15.84 a0.7270000000000006,0.7270000000000006 0 0 0 0.7340000000000008,-1.248 z" fill="#F2F2F2" id="svg_29"/><path d="M100.42073249816895,61.7798837350489 a22.765,22.765 0 0 0 -6.632,9.717 c-2.3280000000000003,6.43 3.493,16.939 3.493,16.939 l9.057,-7.17 " fill="#FF8F6F" id="svg_30"/><path d="M99.44373249816894,146.8028837350489 l-2.458,-1.357 l0.6440000000000009,-3.511 s3.66,0.3470000000000006 3.981,1.6460000000000008 " fill="#003B94" id="svg_31"/><path d="M100.34373249816895,146.7508837350489 c0.553,-0.3400000000000005 1.1320000000000001,-0.6430000000000009 1.705,-0.9450000000000006 c1.421,-0.778 3.473,-1.582 4.348,-3.042 a1.697,1.697 0 0 0 -0.11600000000000013,-1.929 c-1.286,-1.556 -4.104,1.003 -5.5440000000000005,-0.7200000000000006 c-0.2830000000000003,-0.3410000000000005 -0.4190000000000003,-5.75 -0.4190000000000003,-5.75 l-5.48,1.48 s-0.926,10.868 -0.8230000000000006,11.537 c0.10200000000000002,0.668000000000001 1.987,1.286 1.987,1.286 a4.857,4.857 0 0 0 1.5830000000000002,-0.6430000000000009 c0.5720000000000006,-0.4180000000000003 0.05100000000000007,-5.518 0.784,-4.804 c0.7340000000000008,0.7140000000000006 1.055,3.505 1.055,3.505 c0.3050000000000003,0.04600000000000009 0.6140000000000008,0.05400000000000009 0.92,0.02500000000000004 z" fill="#F47B56" id="svg_32"/><path d="M109.90873249816894,152.0568837350489 l-2.457,-1.338 l0.6430000000000009,-3.511 s3.66,0.3470000000000006 3.982,1.6460000000000008 " fill="#003B94" id="svg_33"/><path d="M110.83573249816897,152.0048837350489 c0.553,-0.3400000000000005 1.1320000000000001,-0.6430000000000009 1.7040000000000002,-0.9450000000000006 c1.4220000000000002,-0.778 3.474,-1.582 4.349,-3.042 a1.697,1.697 0 0 0 -0.11600000000000013,-1.929 c-1.287,-1.556 -4.104,1.003 -5.545,-0.7200000000000006 c-0.2830000000000003,-0.3410000000000005 -0.4180000000000003,-5.75 -0.4180000000000003,-5.75 l-5.48,1.48 s-0.933,10.906 -0.8300000000000006,11.55 c0.10200000000000002,0.6430000000000009 1.987,1.286 1.987,1.286 a4.857,4.857 0 0 0 1.5830000000000002,-0.6430000000000009 c0.5720000000000006,-0.4180000000000003 0.05100000000000007,-5.518 0.784,-4.804 c0.7340000000000008,0.7140000000000006 1.055,3.505 1.055,3.505 c0.3070000000000004,0.04200000000000006 0.6190000000000008,0.04600000000000009 0.927,0.012000000000000012 z" fill="#F47B56" id="svg_34"/><path d="M92.05273249816895,116.7258837350489 l-1.6150000000000002,21.588 s2.573,3.55 11.2,1.576 l0.08300000000000012,-14.553 M102.01673249816895,121.0028837350489 c-0.18700000000000022,1.858 0,22.36 0,22.36 s2.386,4.462 12.775,0 l-0.1480000000000002,-17.422 " fill="#3E2928" id="svg_35"/><path d="M91.24873249816895,123.8568837350489 c0.7070000000000006,0.4900000000000003 0.9520000000000006,-2.025 1.6910000000000007,-1.594 a42.094,42.094 0 0 0 8.517,3.755 h0.0640000000000001 a0.5860000000000006,0.5860000000000006 0 0 1 0.792,0.2900000000000003 c1.834,0.547 3.7,0.976 5.59,1.286 c2.424,0.38600000000000045 4.431,-1.409 6.92,-1.53 c0,-9.531 0.04600000000000009,-36.657000000000004 -4.013,-42.445 l-12.01,-4.038 c-0.05800000000000007,0.99 -5.828,7.678 -5.686,15.833 c0.16000000000000025,9.19 -1.036,17.858 -1.242,20.733 c-0.03200000000000005,0.4890000000000003 -0.5980000000000006,7.19 -0.6230000000000008,7.71 z" fill="#3E2928" id="svg_36"/><path d="M111.91573249816895,72.6608837350489 l-1.106,10.933 s-8.96,0.3600000000000003 -12.82,-2.303 v-9.273 " fill="#FF8F6F" id="svg_37"/><path d="M123.30773249816895,65.4648837350489 l-0.913,1.247 A30.002,30.002 0 0 0 123.68073249816894,63.5928837350489 c0.258,-0.7260000000000006 -0.907,-1.016 -1.1640000000000001,-0.2890000000000003 l-0.135,0.3730000000000004 c0.1120000000000001,-0.38600000000000045 0.2170000000000002,-0.774 0.3150000000000004,-1.1640000000000001 a0.6000000000000006,0.6000000000000006 0 1 0 -1.1640000000000001,-0.2900000000000003 a31.17,31.17 0 0 1 -0.907,2.985 a21.3,21.3 0 0 0 0.4250000000000003,-2.637 c0.0770000000000001,-0.7650000000000009 -1.126,-0.7330000000000008 -1.197,0 c-0.1,1.01 -0.28,2.01 -0.54,2.99 a5.57,5.57 0 0 0 -0.0970000000000002,-1.029 a0.6040000000000006,0.6040000000000006 0 0 0 -0.25,-0.4300000000000003 a4.6530000000000005,4.6530000000000005 0 0 0 -0.11600000000000013,-0.4 a0.6050000000000006,0.6050000000000006 0 0 0 -1.178,0.1800000000000002 l-0.0770000000000001,4.502 c-0.21800000000000022,0.467 -0.501,0.9 -0.8420000000000006,1.287 c0.5780000000000006,0.4 1.137,0.8300000000000006 1.6720000000000006,1.286 c0.4780000000000003,0.403 0.933,0.8330000000000006 1.364,1.286 c0.38600000000000045,-0.4800000000000003 0.7570000000000009,-0.9690000000000006 1.113,-1.466 a0.6430000000000009,0.6430000000000009 0 0 0 0.11500000000000012,-0.129 a128.076,128.076 0 0 1 3.3200000000000003,-4.682 c0.4760000000000003,-0.527 -0.5730000000000006,-1.112 -1.03,-0.501 z" fill="#FFB5A9" id="svg_38"/><path d="M106.22973249816894,62.6928837350489 s4.233,1.138 5.95,3.859 a48.38,48.38 0 0 1 2.837,5.845 l3.126,-4.855 s3.795,1.1640000000000001 5.3,3.029 c0,0 -4.502,9.84 -8.426,10.682 c-3.924,0.8420000000000006 -8.092,-5.775 -8.092,-5.775 s-0.8620000000000008,2.765 -0.6950000000000012,-0.18700000000000022 " fill="#FF8F6F" id="svg_39"/><path d="M108.91873249816894,73.2078837350489 a8.572,8.572 0 0 1 -2.6830000000000007,-3.8200000000000003 c-0.508,-1.73 0.129,-3.248 0.7200000000000006,-4.856 a15.643,15.643 0 0 0 1.107,-4.997 c0.052000000000000074,-1.6840000000000006 -0.14100000000000001,-3.37 -0.257,-5.048 a0.4890000000000003,0.4890000000000003 0 0 1 0,-0.21800000000000022 c-0.5660000000000006,-1.8980000000000001 -1.7240000000000002,-3.505 -4.008,-3.6980000000000004 c-5.911,-0.502 -6.246,6.045 -6.2,8.707 c0.044000000000000074,2.6630000000000003 0.32800000000000046,4.463 -1.6340000000000003,5.5760000000000005 c-1.9620000000000002,1.112 -3.378,4.032 -1.506,6.392 c1.872,2.36 0.19300000000000025,1.499 -1.055,3.595 c-1.247,2.097 -0.926,4.714 1.6340000000000003,5.66 c2.56,0.9450000000000006 14.46,-0.8300000000000006 15.554,-1.9300000000000002 a2.27,2.27 0 0 0 0.56,-1.608 a6.238,6.238 0 0 0 -2.232,-3.755 z" fill="#007F68" id="svg_40"/><path d="M114.73373249816893,19.2128837350489 a9.42,9.42 0 0 1 1.6720000000000006,4.888 a3.215,3.215 0 0 1 -0.547,2.283 a1.319,1.319 0 0 1 -1.5950000000000002,0.277 a2.464,2.464 0 0 1 -0.8620000000000008,-0.5800000000000006 a3.003,3.003 0 0 1 -0.553,-0.7000000000000006 l-0.1540000000000002,-0.3020000000000003 c-0.04200000000000006,0.0790000000000001 -0.0940000000000002,0.1520000000000002 -0.15500000000000022,0.21800000000000022 c-0.1530000000000002,0.12000000000000002 -0.3350000000000005,0.19700000000000026 -0.527,0.22500000000000026 c-0.32200000000000045,0.060000000000000074 -0.6540000000000009,0.020000000000000025 -0.9520000000000006,-0.11500000000000012 a3.5700000000000003,3.5700000000000003 0 0 1 -1.6860000000000008,-1.512 a4.854,4.854 0 0 1 -0.7460000000000008,-2.4370000000000003 c-0.0950000000000002,-0.7000000000000006 0.1240000000000001,-1.4060000000000001 0.5980000000000006,-1.9300000000000002 a1.377,1.377 0 0 1 1.564,-0.2440000000000002 c0.258,0.10300000000000002 0.4950000000000004,0.251 0.7000000000000006,0.4380000000000004 c0.17600000000000018,0.1490000000000002 0.3320000000000005,0.32000000000000045 0.464,0.508 l0.11600000000000013,0.20600000000000004 v-0.5730000000000006 l1.286,0.502 l0.129,3.614 c0.009000000000000022,0.259 0.08900000000000013,0.51 0.231,0.7270000000000006 c0.12100000000000002,0.20900000000000019 0.3060000000000003,0.3730000000000004 0.528,0.4700000000000003 c0.6220000000000008,0.2440000000000002 0.909,-0.2920000000000003 0.8620000000000008,-1.609 a6.957,6.957 0 0 0 -1.242,-3.633 a6.091,6.091 0 0 0 -2.85,-2.43 a2.4,2.4 0 0 0 -2.6750000000000007,0.3400000000000005 a3.633,3.633 0 0 0 -1.036,2.971 a7.664,7.664 0 0 0 1.287,3.859 a5.93,5.93 0 0 0 2.746,2.572 c0.4080000000000003,0.17 0.8450000000000006,0.255 1.287,0.25 c0.2870000000000003,0.020000000000000025 0.5750000000000006,-0.03300000000000005 0.8360000000000006,-0.1540000000000002 l0.257,-0.14100000000000001 l0.779,1.447 l-0.129,0.09000000000000016 c-0.1220000000000001,0.06800000000000012 -0.24900000000000022,0.129 -0.3800000000000004,0.1800000000000002 c-0.20500000000000004,0.08900000000000013 -0.4210000000000003,0.1500000000000002 -0.6430000000000009,0.1800000000000002 a3.217,3.217 0 0 1 -0.8550000000000006,0 a4.3100000000000005,4.3100000000000005 0 0 1 -1.087,-0.277 a7.076,7.076 0 0 1 -2.573,-1.8900000000000001 a11.209,11.209 0 0 1 -1.994,-3.113 a9.529,9.529 0 0 1 -0.8240000000000006,-3.453 a5.542,5.542 0 0 1 0.5920000000000006,-2.9 a3.267,3.267 0 0 1 1.827,-1.608 a3.52,3.52 0 0 1 2.534,0.128 a8.175,8.175 0 0 1 3.77,3.229 zm-2.837,4.573 c0.2110000000000002,-0.27 0.3060000000000003,-0.6120000000000008 0.264,-0.9520000000000006 a2.456,2.456 0 0 0 -0.3410000000000005,-1.19 a1.6340000000000003,1.6340000000000003 0 0 0 -0.779,-0.7070000000000006 a0.7010000000000006,0.7010000000000006 0 0 0 -0.79,0.10300000000000002 a1.177,1.177 0 0 0 -0.2840000000000003,0.933 c0.015000000000000022,0.4240000000000003 0.14100000000000001,0.8360000000000006 0.3670000000000003,1.196 c0.1850000000000002,0.32600000000000046 0.4720000000000003,0.5840000000000006 0.8170000000000006,0.7330000000000008 c0.2470000000000002,0.127 0.548,0.0800000000000001 0.7460000000000008,-0.11600000000000013 M190.68273249816895,88.8478837350489 a9.388,9.388 0 0 1 1.6720000000000006,4.8870000000000005 a3.215,3.215 0 0 1 -0.546,2.283 a1.3250000000000002,1.3250000000000002 0 0 1 -1.596,0.277 a2.534,2.534 0 0 1 -0.8620000000000008,-0.5800000000000006 a3.113,3.113 0 0 1 -0.553,-0.7000000000000006 l-0.1540000000000002,-0.3020000000000003 a1.248,1.248 0 0 1 -0.15500000000000022,0.21800000000000022 c-0.1520000000000002,0.12000000000000002 -0.3340000000000005,0.1990000000000003 -0.527,0.22500000000000026 c-0.31900000000000045,0.0640000000000001 -0.6500000000000009,0.026000000000000047 -0.9460000000000006,-0.1090000000000001 a3.5700000000000003,3.5700000000000003 0 0 1 -1.685,-1.518 a4.835,4.835 0 0 1 -0.7530000000000008,-2.443 c-0.0990000000000002,-0.7000000000000006 0.12000000000000002,-1.408 0.5990000000000006,-1.9300000000000002 a1.37,1.37 0 0 1 1.556,-0.2440000000000002 c0.258,0.10200000000000002 0.4960000000000004,0.25 0.7010000000000006,0.4370000000000004 c0.17600000000000018,0.1520000000000002 0.33100000000000046,0.32500000000000046 0.464,0.515 l0.1220000000000001,0.20500000000000004 v-0.5720000000000006 l1.286,0.4950000000000004 l0.129,3.614 c0.011000000000000022,0.259 0.09100000000000018,0.51 0.231,0.7270000000000006 c0.12100000000000002,0.2100000000000002 0.3060000000000003,0.3740000000000004 0.528,0.4700000000000003 c0.6430000000000009,0.2440000000000002 0.907,-0.2900000000000003 0.8680000000000008,-1.608 a6.99,6.99 0 0 0 -1.241,-3.64 a6.104,6.104 0 0 0 -2.843,-2.424 a2.406,2.406 0 0 0 -2.676,0.3340000000000005 a3.633,3.633 0 0 0 -1.01,2.99 a7.639,7.639 0 0 0 1.286,3.859 a5.956,5.956 0 0 0 2.7800000000000002,2.489 c0.4070000000000003,0.17 0.8440000000000006,0.257 1.286,0.257 c0.2870000000000003,0.017000000000000032 0.5740000000000006,-0.03600000000000001 0.8360000000000006,-0.15500000000000022 l0.257,-0.14100000000000001 l0.779,1.447 l-0.13,0.09000000000000016 c-0.12100000000000002,0.06900000000000013 -0.2480000000000002,0.129 -0.3790000000000004,0.1800000000000002 a2.83,2.83 0 0 1 -0.6430000000000009,0.1800000000000002 a3.281,3.281 0 0 1 -0.8620000000000008,0 a4.298,4.298 0 0 1 -1.08,-0.2830000000000003 a7.076,7.076 0 0 1 -2.573,-1.8840000000000003 a11.234,11.234 0 0 1 -1.995,-3.12 a9.51,9.51 0 0 1 -0.8230000000000006,-3.452 a5.51,5.51 0 0 1 0.5920000000000006,-2.894 a3.293,3.293 0 0 1 1.827,-1.6150000000000002 a3.564,3.564 0 0 1 2.54,0.13 a8.188,8.188 0 0 1 3.693,3.305 zm-2.837,4.572 c0.2130000000000002,-0.269 0.3100000000000004,-0.6110000000000008 0.27,-0.9520000000000006 a2.4370000000000003,2.4370000000000003 0 0 0 -0.3470000000000006,-1.19 a1.608,1.608 0 0 0 -0.772,-0.7070000000000006 a0.7010000000000006,0.7010000000000006 0 0 0 -0.791,0.0970000000000002 a1.1640000000000001,1.1640000000000001 0 0 0 -0.2900000000000003,0.932 c0.015000000000000022,0.4220000000000003 0.14200000000000004,0.8330000000000006 0.3670000000000003,1.19 c0.1850000000000002,0.32800000000000046 0.4720000000000003,0.5880000000000006 0.8170000000000006,0.7400000000000008 a0.6430000000000009,0.6430000000000009 0 0 0 0.7460000000000008,-0.1100000000000001 " fill="#F47B56" id="svg_41"/><path d="M62.49473249816894,116.2688837350489 L40.72073249816894,103.8828837350489 l-21.768,12.412 s12.113,7.562 22.951,13.916 c6.883,-4.862 13,-10.424 20.591,-13.942 z" fill="url(#e)" opacity=".25" style="mix-blend-mode:multiply" id="svg_42"/></g><g id="svg_43"><use fill="#000" filter="url(#f)" xlink:href="#g" y="67.59288024902344" x="23.170732498168945" id="svg_44"/><use fill="#FF9271" xlink:href="#g" y="67.59288024902344" x="23.170732498168945" id="svg_45"/></g><path fill="#DF5C34" fill-rule="nonzero" d="M44.15473249816894,93.4888837350489 v26.935 l23.694,-14.013 V79.4758837350489 z" id="svg_46"/><path fill="#F47B56" fill-rule="nonzero" d="M23.170732498168945,81.4708837350489 L47.51773249816894,67.5928837350489 l20.33,11.883000000000001 l-23.693,14.013 z" id="svg_47"/><path d="M44.71173249816894,73.7748837350489 a12.971,12.971 0 0 1 7.104,1.565 c1.243,0.7310000000000006 1.9220000000000002,1.494 2.018,2.29 c0.09600000000000017,0.795 -0.31400000000000033,1.487 -1.2810000000000001,2.07 a4.557,4.557 0 0 1 -1.493,0.5900000000000006 c-0.43400000000000033,0.10300000000000002 -0.8800000000000007,0.14900000000000016 -1.326,0.135 l-0.4870000000000003,-0.03800000000000001 c0.046000000000000076,0.10900000000000008 0.07600000000000008,0.22300000000000023 0.09000000000000014,0.34000000000000047 a1.566,1.566 0 0 1 -0.256,0.776 c-0.254,0.4300000000000003 -0.6160000000000007,0.786 -1.05,1.032 a6.316,6.316 0 0 1 -3.35,0.8850000000000008 a6.623,6.623 0 0 1 -3.479,-0.8780000000000007 c-0.999,-0.5900000000000006 -1.5110000000000001,-1.283 -1.55,-2.078 a2.245,2.245 0 0 1 1.2810000000000001,-2.007 a4.244,4.244 0 0 1 1.179,-0.507 a4.588,4.588 0 0 1 1.018,-0.17300000000000001 h0.3530000000000003 l-0.6410000000000008,-0.3850000000000004 l1.8,-1.122 l4.17,2.456 a2.188,2.188 0 0 0 2.075,0 c0.8840000000000008,-0.551 0.5680000000000006,-1.276 -0.9480000000000006,-2.174 a9.63,9.63 0 0 0 -5.2780000000000005,-1.174 a10.835,10.835 0 0 0 -5.509,1.584 c-1.5110000000000001,0.9450000000000006 -2.26,2.072 -2.248,3.38 c0,1.283 0.8,2.424 2.357,3.341 c1.7000000000000002,0.9500000000000006 3.629,1.4100000000000001 5.573,1.328 a10.463,10.463 0 0 0 5.509,-1.462 a6.177,6.177 0 0 0 1.53,-1.283 c0.2930000000000003,-0.31000000000000033 0.512,-0.6830000000000009 0.6410000000000008,-1.09 l0.09000000000000014,-0.404 l2.376,0.134 c0.004000000000000005,0.07300000000000002 0.004000000000000005,0.14600000000000016 0,0.21900000000000017 c-0.04300000000000006,0.19600000000000023 -0.101,0.3890000000000004 -0.17300000000000001,0.5770000000000006 c-0.10300000000000002,0.3000000000000003 -0.24000000000000016,0.5900000000000006 -0.4100000000000003,0.8590000000000007 c-0.24400000000000016,0.3640000000000003 -0.527,0.7000000000000006 -0.8450000000000006,1 c-0.4200000000000003,0.405 -0.8800000000000007,0.7620000000000008 -1.377,1.065 a12.801,12.801 0 0 1 -4.663,1.6800000000000006 a17.588,17.588 0 0 1 -5.439,0.09600000000000017 a12.448,12.448 0 0 1 -4.67,-1.526 a6.064,6.064 0 0 1 -2.6510000000000002,-2.783 a4.096,4.096 0 0 1 0,-3.2960000000000003 a6.346,6.346 0 0 1 2.633,-2.88 a14.483,14.483 0 0 1 7.327,-2.142 zm2.332,6.631 a1.372,1.372 0 0 0 -0.8,-1 a3.29,3.29 0 0 0 -1.6660000000000008,-0.455 a2.81,2.81 0 0 0 -1.55,0.39700000000000046 c-0.3840000000000004,0.18700000000000017 -0.6310000000000007,0.5730000000000006 -0.6400000000000008,1 c0.05800000000000006,0.4450000000000004 0.3450000000000005,0.8270000000000006 0.7550000000000007,1.007 a3.27,3.27 0 0 0 1.697,0.4300000000000003 a3.046,3.046 0 0 0 1.6270000000000002,-0.4230000000000003 c0.37300000000000033,-0.17 0.6100000000000007,-0.546 0.6030000000000006,-0.9560000000000006 " fill="#3E2928" fill-rule="nonzero" id="svg_48"/></g></g></svg>